<?xml version="1.0" encoding="UTF-8"?>
<svg version="1.1" xmlns="http://www.w3.org/2000/svg" width="252" height="72">
<path d="M0 0 C83.16 0 166.32 0 252 0 C252 23.76 252 47.52 252 72 C168.84 72 85.68 72 0 72 C0 48.24 0 24.48 0 0 Z " fill="#FCFCFC" transform="translate(0,0)"/>
<path d="M0 0 C0.309375 0.94875 0.61875 1.8975 0.9375 2.875 C1.87394742 5.86080408 1.87394742 5.86080408 3 8 C3.165 9.010625 3.33 10.02125 3.5 11.0625 C3.68838386 13.88119345 3.68838386 13.88119345 5 15 C8.45812169 15.33338596 8.45812169 15.33338596 12 15 C14.29544841 12.17601934 14.29544841 12.17601934 13.9375 8.9375 C13.30547606 5.78124921 13.30547606 5.78124921 10.4375 4.625 C9.633125 4.41875 8.82875 4.2125 8 4 C8 3.67 8 3.34 8 3 C17.65005306 2.1417937 17.65005306 2.1417937 21.6875 5.0625 C24 8 24 8 24.0625 11.5 C22.29423107 17.3248859 20.00393124 20.49724813 15 24 C11.26947433 25.24350856 7.87447957 25.52198871 4 25 C-0.79678945 22.60160527 -3.63683712 19.81721665 -6 15 C-6.69846034 10.55810615 -6.50492782 7.10166069 -4.625 3 C-2.1875 0 -2.1875 0 0 0 Z " fill="#3665DD" transform="translate(43,21)"/>
<path d="M0 0 C4.44698079 2.14408002 6.97357037 4.47033377 9 9 C8.67 9.66 8.34 10.32 8 11 C7.484375 10.505 6.96875 10.01 6.4375 9.5 C3.19319983 7.50350759 0.73782666 7.78435615 -3 8 C-2.319375 8.53625 -1.63875 9.0725 -0.9375 9.625 C1 12 1 12 0.875 15.125 C0 18 0 18 -2 20 C-5.4375 20.375 -5.4375 20.375 -9 20 C-10.9375 18.3125 -10.9375 18.3125 -12 16 C-12.0396713 14.33380554 -12.04384447 12.66608987 -12 11 C-12.66 10.34 -13.32 9.68 -14 9 C-14.165 8.319375 -14.33 7.63875 -14.5 6.9375 C-14.665 6.298125 -14.83 5.65875 -15 5 C-15.66 4.67 -16.32 4.34 -17 4 C-11.72592963 -0.56135816 -6.84016664 -1.00770312 0 0 Z " fill="#0AA1E7" transform="translate(57,17)"/>
<path d="M0 0 C0.309375 0.94875 0.61875 1.8975 0.9375 2.875 C1.87394742 5.86080408 1.87394742 5.86080408 3 8 C3.061875 8.969375 3.12375 9.93875 3.1875 10.9375 C3.70310254 14.30273405 3.70310254 14.30273405 7.0625 15.875 C8.5165625 16.431875 8.5165625 16.431875 10 17 C9 20 9 20 7 21 C3.91951945 21.46980302 1.07224317 21.55660533 -2 21 C-5.3894572 17.77588218 -6.24003756 14.97913623 -6.4375 10.4375 C-6.26207501 6.58464734 -5.4815047 4.05415963 -3 1 C-1 0 -1 0 0 0 Z " fill="#003FC6" transform="translate(43,21)"/>
<path d="M0 0 C2.375 1.625 2.375 1.625 4 4 C4 7.77684879 3.78395245 10.03513544 1.375 13 C-2.11581787 14.46981805 -4.39148956 13.98413921 -8 13 C-10 11.3125 -10 11.3125 -11 9 C-10.8670506 5.74273969 -10.60528959 3.76319122 -8.5625 1.1875 C-5.39069813 -1.22306942 -3.78671837 -1.1720795 0 0 Z " fill="#125FC6" transform="translate(186,24)"/>
<path d="M0 0 C3.73981994 0.28767846 5.43928496 0.76050954 8.25 3.25 C9.375 6.625 9.375 6.625 9.25 10.25 C7.25 13.1875 7.25 13.1875 4.25 15.25 C0.5 15.625 0.5 15.625 -2.75 15.25 C-3.75 14.25 -3.75 14.25 -3.8828125 11.34375 C-3.88023438 10.1578125 -3.87765625 8.971875 -3.875 7.75 C-3.87757812 6.5640625 -3.88015625 5.378125 -3.8828125 4.15625 C-3.70828221 0.33711656 -3.70828221 0.33711656 0 0 Z " fill="#1561C7" transform="translate(111.75,22.75)"/>
<path d="M0 0 C1.5 1.3125 1.5 1.3125 3 3 C3 3.99 3 4.98 3 6 C3.66 6 4.32 6 5 6 C5.33 4.35 5.66 2.7 6 1 C7.32 1 8.64 1 10 1 C10.66 2.65 11.32 4.3 12 6 C12.66 4.02 13.32 2.04 14 0 C14.99 0.33 15.98 0.66 17 1 C16.36843005 6.05255964 14.86540627 10.29593201 13 15 C12.01 14.67 11.02 14.34 10 14 C8.8125 11.4375 8.8125 11.4375 8 9 C7.01 10.98 6.02 12.96 5 15 C4.01 14.67 3.02 14.34 2 14 C0.83203125 11.56640625 0.83203125 11.56640625 -0.1875 8.5625 C-0.53167969 7.57378906 -0.87585938 6.58507812 -1.23046875 5.56640625 C-2 3 -2 3 -2 1 C-1.34 0.67 -0.68 0.34 0 0 Z " fill="#115FC6" transform="translate(194,23)"/>
<path d="M0 0 C2.475 0.495 2.475 0.495 5 1 C5.66 1.99 6.32 2.98 7 4 C10.27773504 3.24849977 10.27773504 3.24849977 12 0 C13.32 0 14.64 0 16 0 C16 4.29 16 8.58 16 13 C14.68 13 13.36 13 12 13 C11.67 11.35 11.34 9.7 11 8 C9.02 8.99 9.02 8.99 7 10 C6.34 9.34 5.68 8.68 5 8 C4.34 9.98 3.68 11.96 3 14 C2.01 13.67 1.02 13.34 0 13 C0 8.71 0 4.42 0 0 Z " fill="#0D5BC5" transform="translate(75,24)"/>
<path d="M0 0 C1.37478516 0.01740234 1.37478516 0.01740234 2.77734375 0.03515625 C3.69644531 0.04417969 4.61554688 0.05320312 5.5625 0.0625 C6.27277344 0.07410156 6.98304687 0.08570312 7.71484375 0.09765625 C7.71484375 1.41765625 7.71484375 2.73765625 7.71484375 4.09765625 C5.40484375 4.09765625 3.09484375 4.09765625 0.71484375 4.09765625 C0.71484375 4.75765625 0.71484375 5.41765625 0.71484375 6.09765625 C2.36484375 6.09765625 4.01484375 6.09765625 5.71484375 6.09765625 C5.71484375 7.08765625 5.71484375 8.07765625 5.71484375 9.09765625 C4.06484375 9.09765625 2.41484375 9.09765625 0.71484375 9.09765625 C0.71484375 9.75765625 0.71484375 10.41765625 0.71484375 11.09765625 C3.02484375 11.09765625 5.33484375 11.09765625 7.71484375 11.09765625 C7.71484375 12.41765625 7.71484375 13.73765625 7.71484375 15.09765625 C6.06909809 15.12453776 4.42322962 15.14399748 2.77734375 15.16015625 C1.86082031 15.17175781 0.94429688 15.18335938 0 15.1953125 C-2.28515625 15.09765625 -2.28515625 15.09765625 -3.28515625 14.09765625 C-3.38408565 11.93284828 -3.41486725 9.7647184 -3.41015625 7.59765625 C-3.41273437 6.41171875 -3.4153125 5.22578125 -3.41796875 4.00390625 C-3.24132467 0.13851815 -3.24132467 0.13851815 0 0 Z " fill="#0E5CC5" transform="translate(97.28515625,22.90234375)"/>
<path d="M0 0 C3.4375 0.875 3.4375 0.875 5.4375 3.875 C4.99305556 9.31944444 4.99305556 9.31944444 2.4375 11.875 C-1 12.25 -1 12.25 -4.5625 11.875 C-6.5625 10.1875 -6.5625 10.1875 -7.5625 7.875 C-7.42590503 5.0748031 -6.87403277 3.39422128 -5.4375 1 C-3.5625 -0.125 -3.5625 -0.125 0 0 Z " fill="#F5F6FB" transform="translate(52.5625,25.125)"/>
<path d="M0 0 C1.32 0 2.64 0 4 0 C4.86604534 1.76505435 5.71748642 3.53728074 6.5625 5.3125 C7.27599609 6.79169922 7.27599609 6.79169922 8.00390625 8.30078125 C9 11 9 11 8 14 C7.34 14 6.68 14 6 14 C5.67 13.34 5.34 12.68 5 12 C3.02 12 1.04 12 -1 12 C-1.33 12.66 -1.66 13.32 -2 14 C-2.99 13.67 -3.98 13.34 -5 13 C-4.54554036 11.58208592 -4.08625056 10.16571954 -3.625 8.75 C-3.24214844 7.56664062 -3.24214844 7.56664062 -2.8515625 6.359375 C-2.04826333 4.13372042 -1.10288338 2.09068328 0 0 Z " fill="#1460C6" transform="translate(136,24)"/>
<path d="M0 0 C9.65005306 -0.8582063 9.65005306 -0.8582063 13.6875 2.0625 C16 5 16 5 15.9375 8.6875 C15 12 15 12 14 14 C11.50638429 12.79618552 9.31856917 11.54571278 7 10 C6.71125 8.845 6.4225 7.69 6.125 6.5 C5.38478141 2.819425 5.38478141 2.819425 2.375 1.5625 C1.59125 1.376875 0.8075 1.19125 0 1 C0 0.67 0 0.34 0 0 Z " fill="#8D26C2" transform="translate(51,24)"/>
<path d="M0 0 C1.23556641 0.01740234 1.23556641 0.01740234 2.49609375 0.03515625 C3.32238281 0.04417969 4.14867187 0.05320312 5 0.0625 C5.63808594 0.07410156 6.27617187 0.08570312 6.93359375 0.09765625 C7.26359375 1.41765625 7.59359375 2.73765625 7.93359375 4.09765625 C5.29359375 4.09765625 2.65359375 4.09765625 -0.06640625 4.09765625 C-0.06640625 4.75765625 -0.06640625 5.41765625 -0.06640625 6.09765625 C1.91359375 6.09765625 3.89359375 6.09765625 5.93359375 6.09765625 C5.93359375 7.08765625 5.93359375 8.07765625 5.93359375 9.09765625 C3.95359375 9.09765625 1.97359375 9.09765625 -0.06640625 9.09765625 C-0.06640625 11.07765625 -0.06640625 13.05765625 -0.06640625 15.09765625 C-1.05640625 14.76765625 -2.04640625 14.43765625 -3.06640625 14.09765625 C-3.09326563 11.95188988 -3.11273713 9.8060298 -3.12890625 7.66015625 C-3.14050781 6.46519531 -3.15210938 5.27023438 -3.1640625 4.0390625 C-3.03472503 0.14341801 -3.03472503 0.14341801 0 0 Z " fill="#0C5BC5" transform="translate(151.06640625,22.90234375)"/>
<path d="M0 0 C4.88049925 3.9419417 9.0580583 8.11950075 13 13 C9.92618988 13.3546704 7.06280389 13.5008027 4 13 C0.69741827 9.69741827 0.05017407 7.77769804 -0.25 3.125 C-0.1675 2.09375 -0.085 1.0625 0 0 Z " fill="#0417B8" transform="translate(37,29)"/>
<path d="M0 0 C1.32 0 2.64 0 4 0 C4 3.63 4 7.26 4 11 C5.98 11 7.96 11 10 11 C10 11.99 10 12.98 10 14 C8.52093108 14.02689216 7.04172517 14.04634621 5.5625 14.0625 C4.32693359 14.07990234 4.32693359 14.07990234 3.06640625 14.09765625 C1 14 1 14 0 13 C-0.07258946 10.81360547 -0.08373783 8.62499611 -0.0625 6.4375 C-0.05347656 5.23996094 -0.04445312 4.04242188 -0.03515625 2.80859375 C-0.02355469 1.88175781 -0.01195312 0.95492188 0 0 Z " fill="#0657C3" transform="translate(162,24)"/>
<path d="M0 0 C1.32 0 2.64 0 4 0 C4 4.29 4 8.58 4 13 C2.68 13 1.36 13 0 13 C0 8.71 0 4.42 0 0 Z " fill="#2068C9" transform="translate(124,24)"/>
<path d="M0 0 C2.5 0.125 2.5 0.125 3.5 1.125 C3.625 3.625 3.625 3.625 3.5 6.125 C2.5 7.125 2.5 7.125 0 7.25 C-2.5 7.125 -2.5 7.125 -3.5 6.125 C-3.625 3.625 -3.625 3.625 -3.5 1.125 C-2.5 0.125 -2.5 0.125 0 0 Z " fill="#EEF3F9" transform="translate(182.5,26.875)"/>
<path d="M0 0 C0.66 2.64 1.32 5.28 2 8 C1.34 8 0.68 8 0 8 C0 8.66 0 9.32 0 10 C-1.9375 9.25 -1.9375 9.25 -4 8 C-4.625 5.9375 -4.625 5.9375 -5 4 C-5.66 3.67 -6.32 3.34 -7 3 C-3.375 0 -3.375 0 0 0 Z " fill="#067BDA" transform="translate(47,18)"/>
<path d="M0 0 C3.63 0 7.26 0 11 0 C11.66 1.32 12.32 2.64 13 4 C7.66404866 4.27131956 4.38616179 4.4266889 0 1 C0 0.67 0 0.34 0 0 Z " fill="#2879EF" transform="translate(42,42)"/>
<path d="M0 0 C3.057952 1.73559438 5.63379989 3.38472619 8 6 C7.01 6.99 6.02 7.98 5 9 C1.83884224 7.63016497 1.0072908 7.0109362 -1 4 C-0.625 1.8125 -0.625 1.8125 0 0 Z " fill="#693ED0" transform="translate(57,33)"/>
<path d="M0 0 C4.88049925 3.9419417 9.0580583 8.11950075 13 13 C8.96685318 12.46348047 7.05548319 10.45798792 4.25 7.625 C3.45078125 6.83351563 2.6515625 6.04203125 1.828125 5.2265625 C0 3 0 3 0 0 Z " fill="#0029BF" transform="translate(37,29)"/>
<path d="M0 0 C2.475 0.495 2.475 0.495 5 1 C5 2.65 5 4.3 5 6 C3.35 6.33 1.7 6.66 0 7 C0 4.69 0 2.38 0 0 Z " fill="#F7F9FB" transform="translate(112,27)"/>
<path d="M0 0 C0.309375 0.94875 0.61875 1.8975 0.9375 2.875 C1.87394742 5.86080408 1.87394742 5.86080408 3 8 C2.34 8.66 1.68 9.32 1 10 C-0.37562854 8.71034824 -1.70766393 7.37310707 -3 6 C-3 5.34 -3 4.68 -3 4 C-3.66 3.67 -4.32 3.34 -5 3 C-1.125 0 -1.125 0 0 0 Z " fill="#025CD0" transform="translate(43,21)"/>
<path d="M0 0 C3.82097239 0.53069061 6.06171403 1.49701566 9 4 C8.67 5.32 8.34 6.64 8 8 C6.66372225 6.85760183 5.33104612 5.71098945 4 4.5625 C3.2575 3.92441406 2.515 3.28632813 1.75 2.62890625 C1.1725 2.09136719 0.595 1.55382812 0 1 C0 0.67 0 0.34 0 0 Z " fill="#9D11B7" transform="translate(57,24)"/>
<path d="M0 0 C3.16115776 1.36983503 3.9927092 1.9890638 6 5 C4.35 5.66 2.7 6.32 1 7 C0.67 4.69 0.34 2.38 0 0 Z " fill="#4C52DC" transform="translate(55,38)"/>
</svg>
